<?xml version="1.0" encoding="utf-8"?>
<!-- Generator: Adobe Illustrator 25.2.3, SVG Export Plug-In . SVG Version: 6.00 Build 0)  -->
<svg version="1.1" id="Layer_1" xmlns="http://www.w3.org/2000/svg" xmlns:xlink="http://www.w3.org/1999/xlink" x="0px" y="0px"
	 viewBox="0 0 16 16" style="enable-background:new 0 0 16 16;" xml:space="preserve">
<style type="text/css">
	.st0{fill:#061FC5;}
</style>
<path class="st0" d="M15.4,7L14,5.6V2c0-0.5-0.4-1-1-1h-1c-0.6,0-1,0.5-1,1v0.6l-2-2C8.7,0.3,8.5,0,8,0S7.3,0.3,7,0.6L0.6,7
	C0.2,7.3,0,7.6,0,8c0,0.6,0.4,1,1,1h1v6c0,0.6,0.5,1,1,1h3v-5c0-0.6,0.4-1,1-1h2c0.6,0,1,0.4,1,1v5h3c0.6,0,1-0.4,1-1V9h1
	c0.6,0,1-0.4,1-1C16,7.6,15.8,7.3,15.4,7z"/>
</svg>
