<svg xmlns="http://www.w3.org/2000/svg" xmlns:xlink="http://www.w3.org/1999/xlink" width="1080" height="1920" viewBox="0 0 1080 1920">
  <defs>
    <linearGradient id="linear-gradient" x1="0.5" x2="0.5" y2="1" gradientUnits="objectBoundingBox">
      <stop offset="0" stop-color="#061fc5"/>
      <stop offset="1" stop-color="#02dcff"/>
    </linearGradient>
    <clipPath id="clip-Trails">
      <rect width="1080" height="1920"/>
    </clipPath>
  </defs>
  <g id="Trails" clip-path="url(#clip-Trails)">
    <rect width="1080" height="1920" fill="#fff"/>
    <circle id="Ellipse_1" data-name="Ellipse 1" cx="36.5" cy="36.5" r="36.5" transform="translate(63 618)" fill="#0546d1"/>
    <circle id="Ellipse_3" data-name="Ellipse 3" cx="36.5" cy="36.5" r="36.5" transform="translate(63 1264)" fill="#0394e9"/>
    <circle id="Ellipse_2" data-name="Ellipse 2" cx="36.5" cy="36.5" r="36.5" transform="translate(63 295)" fill="#061fc5"/>
    <path id="Path_2" data-name="Path 2" d="M36.5,0A36.5,36.5,0,1,1,0,36.5,36.5,36.5,0,0,1,36.5,0Z" transform="translate(63 941)" fill="#046fdd"/>
    <path id="Path_3" data-name="Path 3" d="M36.5,0A36.5,36.5,0,1,1,0,36.5,36.5,36.5,0,0,1,36.5,0Z" transform="translate(63 1587)" fill="#02bdf5"/>
    <path id="Path_1" data-name="Path 1" d="M0,0H20V1536H0Z" transform="translate(89 331)" fill="url(#linear-gradient)"/>
  </g>
</svg>
