<?xml version="1.0" encoding="utf-8"?>
<!-- Generator: Adobe Illustrator 25.2.3, SVG Export Plug-In . SVG Version: 6.00 Build 0)  -->
<svg version="1.1" id="Layer_1" xmlns="http://www.w3.org/2000/svg" xmlns:xlink="http://www.w3.org/1999/xlink" x="0px" y="0px"
	 viewBox="0 0 122.9 95.1" style="enable-background:new 0 0 122.9 95.1;" xml:space="preserve">
<style type="text/css">
	.st0{fill:#061FC5;}
</style>
<g>
	<path class="st0" d="M66.6,9.7c-0.8-0.8-1.7-1.2-2.8-1.2c-1.1,0-2,0.4-2.8,1.2l-4.3,4.2c-1.1-0.7-2.3-1.4-3.6-2
		c-1.3-0.6-2.5-1.1-3.9-1.5V3.9c0-1.1-0.4-2-1.1-2.8C47.4,0.4,46.5,0,45.4,0h-8.2c-1,0-2,0.4-2.8,1.1c-0.8,0.8-1.2,1.7-1.2,2.8v6
		c-1.4,0.3-2.7,0.7-4,1.2c-1.3,0.5-2.5,1.1-3.7,1.7l-4.7-4.6C20.2,7.4,19.3,7,18.2,7c-1.1,0-2,0.4-2.8,1.2l-5.7,5.7
		c-0.8,0.8-1.2,1.7-1.2,2.8c0,1.1,0.4,2,1.2,2.8l4.2,4.3c-0.7,1.1-1.4,2.3-2,3.6c-0.6,1.3-1.1,2.6-1.5,3.9H3.9c-1.1,0-2,0.4-2.8,1.1
		C0.4,33.1,0,34,0,35.1v8.2c0,1,0.4,2,1.1,2.8c0.8,0.8,1.7,1.2,2.8,1.2h6c0.3,1.4,0.7,2.7,1.2,4c0.5,1.3,1.1,2.5,1.7,3.7l-4.6,4.6
		C7.4,60.3,7,61.2,7,62.3c0,1.1,0.4,2,1.2,2.8l5.7,5.8c0.8,0.7,1.7,1.1,2.8,1.1c1.1,0,2-0.4,2.8-1.1l4.3-4.3c1.1,0.7,2.3,1.4,3.6,2
		c1.3,0.6,2.5,1.1,3.9,1.5v6.5c0,1.1,0.4,2,1.1,2.8c0.8,0.8,1.7,1.1,2.8,1.1h8.2c1,0,2-0.4,2.8-1.1c0.8-0.8,1.2-1.7,1.2-2.8v-6
		c1.4-0.3,2.7-0.7,4-1.2c1.3-0.5,2.5-1.1,3.7-1.7l4.6,4.6c0.7,0.8,1.7,1.2,2.8,1.2c1.1,0,2-0.4,2.8-1.2l5.8-5.7
		c0.7-0.8,1.1-1.7,1.1-2.8s-0.4-2-1.1-2.8l-4.3-4.3c0.7-1.1,1.4-2.3,2-3.6c0.6-1.3,1.1-2.6,1.5-3.9h6.5c1.1,0,2-0.4,2.8-1.1
		c0.8-0.8,1.1-1.7,1.1-2.8v-8.2c0-1-0.4-2-1.1-2.8c-0.8-0.8-1.7-1.2-2.8-1.2h-6c-0.3-1.3-0.7-2.6-1.2-3.9c-0.5-1.3-1.1-2.5-1.7-3.7
		l4.6-4.7c0.8-0.7,1.2-1.6,1.2-2.7c0-1.1-0.4-2-1.2-2.8L66.6,9.7L66.6,9.7z M111.9,53.6c-0.5-0.4-1-0.5-1.6-0.4
		c-0.6,0.1-1.1,0.4-1.4,0.9l-1.9,2.7c-0.7-0.3-1.4-0.5-2.1-0.7c-0.7-0.2-1.5-0.3-2.2-0.5l-0.6-3.5c-0.1-0.6-0.4-1.1-0.9-1.4
		c-0.5-0.3-1-0.5-1.6-0.4L95,51.2c-0.6,0.1-1,0.4-1.4,0.9c-0.3,0.5-0.5,1-0.4,1.6l0.6,3.2c-0.7,0.3-1.4,0.6-2,1
		c-0.7,0.4-1.3,0.8-1.8,1.3l-3-2.1c-0.5-0.4-1-0.5-1.6-0.4c-0.6,0.1-1,0.4-1.4,0.9l-2.6,3.7c-0.4,0.5-0.5,1-0.4,1.6
		c0.1,0.6,0.4,1.1,0.9,1.4l2.7,1.9c-0.3,0.7-0.5,1.4-0.7,2.1c-0.2,0.7-0.3,1.5-0.5,2.2L80,71.3c-0.6,0.1-1.1,0.4-1.4,0.9
		c-0.3,0.5-0.5,1-0.4,1.6l0.8,4.4c0.1,0.6,0.4,1,0.9,1.4c0.5,0.3,1,0.5,1.6,0.4l3.2-0.6c0.3,0.7,0.6,1.4,1,2
		c0.4,0.7,0.8,1.3,1.3,1.9l-2.1,3c-0.4,0.5-0.5,1-0.4,1.6c0.1,0.6,0.4,1,0.9,1.4l3.7,2.6c0.5,0.3,1,0.4,1.6,0.3
		c0.6-0.1,1.1-0.4,1.4-0.9l1.9-2.7c0.7,0.3,1.4,0.5,2.1,0.7c0.7,0.2,1.5,0.3,2.2,0.4l0.6,3.5c0.1,0.6,0.4,1.1,0.9,1.4
		c0.5,0.3,1,0.5,1.6,0.4l4.4-0.8c0.6-0.1,1-0.4,1.4-0.9c0.3-0.5,0.5-1,0.4-1.6l-0.6-3.2c0.7-0.3,1.4-0.6,2-1
		c0.7-0.4,1.3-0.8,1.9-1.3l3,2.1c0.5,0.4,1,0.5,1.6,0.4c0.6-0.1,1.1-0.4,1.4-0.9l2.6-3.7c0.3-0.5,0.4-1,0.3-1.6
		c-0.1-0.6-0.4-1.1-0.9-1.4l-2.7-1.9c0.3-0.7,0.5-1.4,0.7-2.1c0.2-0.7,0.3-1.5,0.5-2.2l3.5-0.6c0.6-0.1,1.1-0.4,1.4-0.9
		c0.3-0.5,0.5-1,0.4-1.6l-0.8-4.4c-0.1-0.6-0.4-1-0.9-1.4c-0.5-0.4-1-0.5-1.6-0.4l-3.2,0.6c-0.3-0.7-0.6-1.4-1-2
		c-0.4-0.7-0.8-1.3-1.3-1.8l2.1-3c0.4-0.5,0.5-1,0.4-1.6c-0.1-0.6-0.4-1-0.9-1.4L111.9,53.6L111.9,53.6z M99.2,64.9
		c1.1-0.2,2.1-0.2,3.1,0.1c1,0.2,2,0.7,2.8,1.2c0.8,0.6,1.5,1.3,2.1,2.2c0.6,0.9,0.9,1.9,1.1,2.9c0.2,1.1,0.2,2.1-0.1,3.2
		c-0.2,1-0.7,1.9-1.2,2.8c-0.6,0.8-1.3,1.5-2.2,2.1c-0.9,0.6-1.9,1-2.9,1.1c-1.1,0.2-2.1,0.2-3.1-0.1c-1-0.2-1.9-0.7-2.8-1.2
		c-0.8-0.6-1.5-1.3-2.1-2.2c-0.6-0.9-1-1.9-1.1-2.9c-0.2-1.1-0.2-2.1,0.1-3.1c0.2-1,0.7-2,1.2-2.8c0.6-0.8,1.3-1.5,2.2-2.1
		C97.1,65.5,98.1,65.1,99.2,64.9L99.2,64.9z M40.3,24.2c2.2,0,4.3,0.4,6.3,1.2c2,0.8,3.7,2,5.1,3.4c1.4,1.4,2.6,3.2,3.4,5.1
		c0.8,2,1.2,4.1,1.2,6.3c0,2.2-0.4,4.3-1.2,6.3c-0.8,2-2,3.7-3.4,5.1c-1.4,1.4-3.2,2.6-5.1,3.4c-2,0.8-4.1,1.2-6.3,1.2
		S36,55.9,34,55.1c-2-0.8-3.7-2-5.1-3.4c-1.4-1.4-2.6-3.2-3.4-5.1c-0.8-2-1.2-4.1-1.2-6.3c0-2.2,0.4-4.3,1.2-6.3
		c0.8-2,2-3.7,3.4-5.1c1.4-1.4,3.2-2.6,5.1-3.4C36,24.6,38.1,24.2,40.3,24.2L40.3,24.2z"/>
</g>
</svg>
