<svg xmlns="http://www.w3.org/2000/svg" xmlns:xlink="http://www.w3.org/1999/xlink" viewBox="0 0 664 664"><defs><style>.cls-1{fill:url(#linear-gradient);}.cls-2{fill:#fff;}</style><linearGradient id="linear-gradient" x1="332" y1="-15.03" x2="332" y2="648.97" gradientUnits="userSpaceOnUse"><stop offset="0" stop-color="blue"/><stop offset="1" stop-color="#00a3ff"/></linearGradient></defs><g id="Layer_2" data-name="Layer 2"><circle class="cls-1" cx="332" cy="332" r="332"/></g><g id="Layer_3" data-name="Layer 3"><path class="cls-2" d="M505.37,417.63s26.59,86.42,90.85,86.42,46.53-104.14,42.1-128.52-37.67-79.76-93.06-66.47S494.3,382.18,505.37,417.63Z" transform="translate(-351 -54)"/><path class="cls-2" d="M566.15,538l96.51-25,17.25,66.49S684,604,637.87,616s-52.33-12-52.33-12Z" transform="translate(-351 -54)"/><path class="cls-2" d="M717,257.27S695.89,351.1,755.23,385s97.94-71.62,106.71-96.47,7.32-93.54-50.86-110.5S725.43,218.68,717,257.27Z" transform="translate(-351 -54)"/><path class="cls-2" d="M709.54,400.5l102.34,27.82-19.16,70.51s-9.19,24.79-58.08,11.5-42-38.71-42-38.71Z" transform="translate(-351 -54)"/></g></svg>