<?xml version="1.0" encoding="utf-8"?>
<!-- Generator: Adobe Illustrator 25.2.3, SVG Export Plug-In . SVG Version: 6.00 Build 0)  -->
<svg version="1.1" id="Layer_1" xmlns="http://www.w3.org/2000/svg" xmlns:xlink="http://www.w3.org/1999/xlink" x="0px" y="0px"
	 viewBox="0 0 1366 768" style="enable-background:new 0 0 1366 768;" xml:space="preserve">
<style type="text/css">
	.st0{fill:#061FC5;}
	.st1{fill:#FFFFFF;}
</style>
<path class="st0" d="M343.4,502.3l160.93-191.7c12.11-14.43,34.05-15.17,47.11-1.59l48.54,50.49c13.93,14.49,37.67,12.51,49-4.09
	l122.3-179.05c12.25-17.94,38.51-18.51,51.53-1.11l244.07,326.08c15.61,20.85,0.79,50.58-25.26,50.67l-673.85,2.35
	C340.81,554.45,326.06,522.95,343.4,502.3z"/>
<path class="st1" d="M627,369c0,0-62,31-46,55c8,12,21.67,16.72,41.38,31.23C637,466,662.5,484.84,644,501c-37,32.31-130,58-130,58
	h315c0,0,52-47,9-77s-179-30-224-61c-13.33-9.18-5.43-26.65,2.68-38.79C621.8,374.54,627,369,627,369z"/>
</svg>
